<svg xmlns="http://www.w3.org/2000/svg" width="1200" height="675" viewBox="0 0 1200 675">
  <rect width="1200" height="675" fill="#eef4f4"/>
  <rect x="48" y="46" width="1104" height="583" rx="28" fill="#fbfefe" stroke="#c8d8d7" stroke-width="2"/>

  <rect x="84" y="84" width="170" height="38" rx="19" fill="#dceceb"/>
  <text x="169" y="109" text-anchor="middle" fill="#3c6b68" font-size="19" font-family="Arial, PingFang SC, sans-serif">科技与 AI 动态 04</text>
  <text x="1030" y="109" text-anchor="end" fill="#70757d" font-size="20" font-family="Arial, PingFang SC, sans-serif">Microsoft / Governance</text>

  <text x="84" y="186" fill="#1f2328" font-size="56" font-weight="700" font-family="Arial, PingFang SC, sans-serif">安全开始从“提示词里约束”</text>
  <text x="84" y="252" fill="#1f2328" font-size="56" font-weight="700" font-family="Arial, PingFang SC, sans-serif">前移到“运行时先拦”</text>
  <text x="84" y="302" fill="#667085" font-size="28" font-family="Arial, PingFang SC, sans-serif">这条新闻真正重要的，是 agent 风险开始按“动作”而不是按“回答”来治理。</text>

  <rect x="84" y="360" width="1032" height="174" rx="26" fill="#f5fbfb" stroke="#d2e5e4" stroke-width="2"/>
  <text x="112" y="404" fill="#5b7d7a" font-size="22" font-family="Arial, PingFang SC, sans-serif">执行前先过策略，不再等出事后补救</text>

  <rect x="112" y="438" width="240" height="62" rx="18" fill="#ffffff" stroke="#cfe0df" stroke-width="2"/>
  <rect x="478" y="438" width="270" height="62" rx="18" fill="#ffffff" stroke="#b9d6d4" stroke-width="2"/>
  <rect x="874" y="438" width="210" height="62" rx="18" fill="#ffffff" stroke="#cfe0df" stroke-width="2"/>

  <text x="232" y="477" text-anchor="middle" fill="#1f2328" font-size="30" font-weight="700" font-family="Arial, PingFang SC, sans-serif">动作请求</text>
  <text x="613" y="477" text-anchor="middle" fill="#1f2328" font-size="30" font-weight="700" font-family="Arial, PingFang SC, sans-serif">策略判断 / 权限检查</text>
  <text x="979" y="477" text-anchor="middle" fill="#1f2328" font-size="30" font-weight="700" font-family="Arial, PingFang SC, sans-serif">审计记录</text>

  <path d="M352 469 L452 469" stroke="#73a9a5" stroke-width="4" stroke-linecap="round"/>
  <path d="M452 469 L438 459" stroke="#73a9a5" stroke-width="4" stroke-linecap="round" fill="none"/>
  <path d="M452 469 L438 479" stroke="#73a9a5" stroke-width="4" stroke-linecap="round" fill="none"/>
  <path d="M748 469 L848 469" stroke="#73a9a5" stroke-width="4" stroke-linecap="round"/>
  <path d="M848 469 L834 459" stroke="#73a9a5" stroke-width="4" stroke-linecap="round" fill="none"/>
  <path d="M848 469 L834 479" stroke="#73a9a5" stroke-width="4" stroke-linecap="round" fill="none"/>

  <rect x="84" y="562" width="130" height="34" rx="17" fill="#dceceb"/>
  <rect x="228" y="562" width="130" height="34" rx="17" fill="#dceceb"/>
  <rect x="372" y="562" width="130" height="34" rx="17" fill="#dceceb"/>
  <text x="149" y="584" text-anchor="middle" fill="#3c6b68" font-size="19" font-family="Arial, PingFang SC, sans-serif">权限</text>
  <text x="293" y="584" text-anchor="middle" fill="#3c6b68" font-size="19" font-family="Arial, PingFang SC, sans-serif">隔离</text>
  <text x="437" y="584" text-anchor="middle" fill="#3c6b68" font-size="19" font-family="Arial, PingFang SC, sans-serif">可追溯</text>
</svg>
