<svg xmlns="http://www.w3.org/2000/svg" width="1200" height="675" viewBox="0 0 1200 675">
  <rect width="1200" height="675" fill="#f4f0ea"/>
  <rect x="48" y="46" width="1104" height="583" rx="28" fill="#fffdfa" stroke="#ddd5cb" stroke-width="2"/>

  <rect x="84" y="84" width="170" height="38" rx="19" fill="#efe4d6"/>
  <text x="169" y="109" text-anchor="middle" fill="#825d35" font-size="19" font-family="Arial, PingFang SC, sans-serif">科技与 AI 动态 03</text>
  <text x="1038" y="109" text-anchor="end" fill="#747474" font-size="20" font-family="Arial, PingFang SC, sans-serif">OpenAI / Anthropic</text>

  <text x="84" y="188" fill="#1f2328" font-size="56" font-weight="700" font-family="Arial, PingFang SC, sans-serif">大模型竞争开始从</text>
  <text x="84" y="254" fill="#1f2328" font-size="56" font-weight="700" font-family="Arial, PingFang SC, sans-serif">技术秀转向营收兑现</text>
  <text x="84" y="304" fill="#667085" font-size="28" font-family="Arial, PingFang SC, sans-serif">真正值得盯的，不只是 benchmark，而是收入结构、续费能力和企业客户质量。</text>

  <rect x="84" y="348" width="1032" height="184" rx="26" fill="#fcfaf7" stroke="#e7ddd1" stroke-width="2"/>
  <line x1="140" y1="496" x2="1018" y2="496" stroke="#d7cec4" stroke-width="3"/>
  <line x1="140" y1="496" x2="140" y2="388" stroke="#d7cec4" stroke-width="3"/>
  <polyline points="140,468 330,438 520,380 710,332 900,278" fill="none" stroke="#d89143" stroke-width="8" stroke-linecap="round" stroke-linejoin="round"/>
  <polyline points="140,476 330,458 520,420 710,372 900,330" fill="none" stroke="#6aa58d" stroke-width="8" stroke-linecap="round" stroke-linejoin="round"/>
  <circle cx="900" cy="278" r="8" fill="#d89143"/>
  <circle cx="900" cy="330" r="8" fill="#6aa58d"/>
  <text x="924" y="286" fill="#d89143" font-size="24" font-family="Arial, PingFang SC, sans-serif">OpenAI</text>
  <text x="924" y="338" fill="#6aa58d" font-size="24" font-family="Arial, PingFang SC, sans-serif">Anthropic</text>
  <text x="166" y="524" fill="#7d7468" font-size="20" font-family="Arial, PingFang SC, sans-serif">2023</text>
  <text x="356" y="524" fill="#7d7468" font-size="20" font-family="Arial, PingFang SC, sans-serif">2024</text>
  <text x="546" y="524" fill="#7d7468" font-size="20" font-family="Arial, PingFang SC, sans-serif">2025</text>
  <text x="736" y="524" fill="#7d7468" font-size="20" font-family="Arial, PingFang SC, sans-serif">2026</text>

  <rect x="84" y="562" width="138" height="34" rx="17" fill="#efe4d6"/>
  <rect x="236" y="562" width="138" height="34" rx="17" fill="#efe4d6"/>
  <rect x="388" y="562" width="154" height="34" rx="17" fill="#efe4d6"/>
  <text x="153" y="584" text-anchor="middle" fill="#825d35" font-size="19" font-family="Arial, PingFang SC, sans-serif">收入结构</text>
  <text x="305" y="584" text-anchor="middle" fill="#825d35" font-size="19" font-family="Arial, PingFang SC, sans-serif">续费能力</text>
  <text x="465" y="584" text-anchor="middle" fill="#825d35" font-size="19" font-family="Arial, PingFang SC, sans-serif">企业客户质量</text>
</svg>
